<?xml version="1.0" standalone="no"?>
<!DOCTYPE svg PUBLIC "-//W3C//DTD SVG 1.1//EN" "http://www.w3.org/Graphics/SVG/1.1/DTD/svg11.dtd" >
<svg xmlns="http://www.w3.org/2000/svg">
<metadata>
Created by FontPrep 20130207 at Fri Sep 25 09:47:08 2015
 By Jerry van Heerikhuize
Copyright (c) 2009 by The Entente (AS &#38; EH). All rights reserved. wf-rip
</metadata>
<defs>
<font id="0173572ae23caf3e4e6d6c9b98fd6474" horiz-adv-x='1024' >
  <font-face 
    font-family="Apercu-Bold"
    font-weight="700"
    font-stretch="normal"
    units-per-em="2048"
    panose-1="2 0 8 3 4 0 0 2 0 4"
    ascent="1638"
    descent="-410"
    x-height="1032"
    cap-height="1434"
    bbox="-154 -545 2513 1952"
    underline-thickness="102"
    underline-position="-102"
    unicode-range="U+0020-FB02"
  />
<missing-glyph horiz-adv-x="1333" 
d="M903 217v1000h-473v-1000h473zM1149 0h-965v1434h965v-1434z" />
    <glyph glyph-name="uniFB01" unicode="fi" 
d="M197 815h-131v217h131v12q0 198 127 302q126 104 330 104t319 -59l-80 -193q-88 35 -202 35t-177 -49t-63 -142v-10h579v-1032h-254v815h-325v-815h-254v815z" />
    <glyph glyph-name="uniFB02" unicode="fl" horiz-adv-x="1275" 
d="M197 815h-131v217h131v53q0 181 93 273t263 92h567v-1450h-254v1233h-299q-117 0 -116 -129v-72h217v-217h-217v-815h-254v815z" />
    <glyph glyph-name=".notdef" horiz-adv-x="1333" 
d="M903 217v1000h-473v-1000h473zM1149 0h-965v1434h965v-1434z" />
    <glyph glyph-name=".null" horiz-adv-x="0" 
 />
    <glyph glyph-name="nonmarkingreturn" horiz-adv-x="681" 
 />
    <glyph glyph-name="space" unicode=" " horiz-adv-x="507" 
 />
    <glyph glyph-name="exclam" unicode="!" horiz-adv-x="737" 
d="M205 157q0 71 50 121t120 50t120 -50t50 -121t-49 -120t-121 -49t-121 49t-49 120zM264 496l-57 938h336l-58 -938h-221z" />
    <glyph glyph-name="quotedbl" unicode="&#x22;" horiz-adv-x="1005" 
d="M778 940h-162l-63 510h289zM389 940h-162l-63 510h289z" />
    <glyph glyph-name="numbersign" unicode="#" horiz-adv-x="1507" 
d="M895 838h-233l-50 -242h234zM215 838v200h283l82 396h204l-82 -396h234l80 396h205l-80 -396h233v-200h-274l-49 -242h241v-201h-282l-82 -395h-205l82 395h-234l-79 -395h-205l80 395h-234v201h275l49 242h-242z" />
    <glyph glyph-name="dollar" unicode="$" horiz-adv-x="1099" 
d="M412 1073q0 -111 215 -213q296 -127 363 -271q34 -71 34 -159q0 -174 -89 -288t-247 -146v-180h-250v184q-141 35 -239 139t-127 246l215 135q82 -291 284 -291q186 0 187 187q0 111 -213 200q-80 35 -135 65t-121 83q-137 110 -131 297q0 135 76 237q77 102 204 138v182
h250v-186q185 -52 275 -242l-215 -137q-78 152 -199 151q-59 0 -98 -37t-39 -94z" />
    <glyph glyph-name="percent" unicode="%" horiz-adv-x="1716" 
d="M240 41l1101 1470l148 -116l-1102 -1473zM1401 311q0 57 -34 95t-94 39q-60 0 -93 -38q-33 -37 -33 -95t33 -96t92 -38t94 38t35 95zM938 311q0 139 94 233t240 95q146 0 242 -95q96 -94 96 -232t-96 -233t-242 -95t-240 94t-94 233zM442 1256q-60 0 -94 -38
q-33 -38 -33 -96t33 -96q35 -37 93 -37t94 37q35 39 34 96q1 58 -33 96t-94 38zM441 1450q145 0 241 -95t96 -233t-95 -232q-95 -95 -241 -95t-241 94q-94 94 -95 233q0 140 94 234t241 94z" />
    <glyph glyph-name="ampersand" unicode="&#x26;" horiz-adv-x="1425" 
d="M745 1137q-1 43 -29 69t-74 27q-46 0 -77 -29t-30 -76q0 -74 65 -157q145 66 145 166zM592 219q135 0 233 80l-288 385q-156 -94 -156 -258q-1 -88 59 -148t152 -59zM599 -16q-206 0 -335 116q-129 121 -129 322q0 143 74 257t199 185q-98 138 -98 274t90 224
q91 88 243 88t242 -85t90 -202t-65 -213t-169 -151l236 -310q59 109 104 259l148 -173q-37 -160 -107 -276l230 -299h-301l-84 111q-162 -127 -368 -127z" />
    <glyph glyph-name="quotesingle" unicode="'" horiz-adv-x="616" 
d="M389 940h-162l-63 510h289z" />
    <glyph glyph-name="parenleft" unicode="(" horiz-adv-x="614" 
d="M377 717q0 -277 45 -455t143 -364h-219q-66 117 -106 208q-40 90 -74 256q-35 166 -35 354t35 352q35 165 78 262t102 206h219q-188 -346 -188 -819z" />
    <glyph glyph-name="parenright" unicode=")" horiz-adv-x="614" 
d="M49 1536h219q58 -109 104 -210t79 -266q69 -346 -2 -700q-35 -164 -75 -254t-106 -208h-219q94 178 141 364t48 455q-1 473 -189 819z" />
    <glyph glyph-name="asterisk" unicode="*" horiz-adv-x="995" 
d="M393 1450h209v-231l223 73l68 -202l-223 -76l137 -187l-174 -129l-135 191l-136 -191l-174 129l138 187l-224 76l68 202l223 -73v231z" />
    <glyph glyph-name="plus" unicode="+" horiz-adv-x="1196" 
d="M489 760v377h222v-377h376v-221h-376v-377h-222v377h-376v221h376z" />
    <glyph glyph-name="comma" unicode="," horiz-adv-x="743" 
d="M295 -319h-178l153 618h342z" />
    <glyph glyph-name="hyphen" unicode="-" horiz-adv-x="1030" 
d="M897 539h-764v221h764v-221z" />
    <glyph glyph-name="period" unicode="." horiz-adv-x="671" 
d="M164 160q0 74 49 123t123 49t123 -49t49 -123t-49 -123t-123 -49t-123 49t-49 123z" />
    <glyph glyph-name="slash" unicode="/" horiz-adv-x="1126" 
d="M16 -102l893 1638h246l-893 -1638h-246z" />
    <glyph glyph-name="zero" unicode="0" horiz-adv-x="1310" 
d="M930 717q0 496 -275 495q-274 0 -274 -496q1 -496 275 -495q274 0 274 496zM655 1450q253 0 391 -194t138 -540t-137 -540q-137 -192 -391 -192t-392 192q-137 192 -137 540q0 346 138 540t390 194z" />
    <glyph glyph-name="one" unicode="1" horiz-adv-x="847" 
d="M672 1434v-1434h-258v1073l-275 -164v279l420 246h113z" />
    <glyph glyph-name="two" unicode="2" horiz-adv-x="1185" 
d="M1042 0h-911v102l512 662q111 137 111 260q0 88 -45 138t-127 50q-164 0 -191 -188l-237 45q10 165 131 273t309 108t304 -114q114 -114 114 -297t-123 -345l-350 -456h503v-238z" />
    <glyph glyph-name="three" unicode="3" horiz-adv-x="1206" 
d="M594 221q100 0 164 66q63 65 63 179t-61 180t-164 67q-68 0 -125 -31l-102 143l270 371h-457v238h822v-91l-338 -456q49 4 57 4q164 0 260 -117q96 -116 96 -322t-137 -337t-341 -131t-337 114q-131 115 -149 299l247 33q51 -209 232 -209z" />
    <glyph glyph-name="four" unicode="4" horiz-adv-x="1259" 
d="M737 504v547l-303 -547h303zM995 0h-258v266h-616v131l604 1037h270v-930h160v-238h-160v-266z" />
    <glyph glyph-name="five" unicode="5" horiz-adv-x="1193" 
d="M606 221q104 0 159 66q54 65 54 187t-58 185t-182 63t-239 -128l-162 33l80 807h737v-238h-526l-33 -299q90 53 203 53q213 0 326 -126t113 -346t-130 -357q-128 -137 -328 -137t-328 108t-145 283l244 45q39 -199 215 -199z" />
    <glyph glyph-name="six" unicode="6" horiz-adv-x="1214" 
d="M401 453q-1 -102 63 -167t158 -65q94 -1 158 63t64 168t-62 165q-62 63 -159 63q-98 0 -160 -62t-62 -165zM639 918q199 0 330 -132q133 -130 133 -334t-138 -336t-341 -132t-341 132t-139 335q0 133 70 251l418 748h287l-312 -532h33z" />
    <glyph glyph-name="seven" unicode="7" horiz-adv-x="1017" 
d="M100 1434h869v-107l-541 -1327h-254l490 1196h-564v238z" />
    <glyph glyph-name="eight" unicode="8" horiz-adv-x="1216" 
d="M436 1054q0 -81 47 -131q47 -51 125 -51t125 50t47 132q0 81 -47 130t-125 49t-125 -49t-47 -130zM817 428q0 97 -58 152q-59 55 -151 55t-150 -55q-58 -56 -58 -152t58 -152q60 -56 151 -55q91 0 149 55t59 152zM197 1048q1 172 117 288q116 114 295 114t295 -114
t116 -286q0 -171 -135 -278q190 -109 190 -344q0 -205 -137 -325q-137 -119 -330 -119t-332 120q-135 121 -135 324q0 236 189 344q-133 104 -133 276z" />
    <glyph glyph-name="nine" unicode="9" horiz-adv-x="1214" 
d="M846 981q0 102 -64 167q-64 64 -157 64t-157 -63t-64 -167t60 -166q62 -62 160 -62t160 62t62 165zM608 516q-199 0 -332 129q-131 131 -131 336q1 205 139 337t340 132t341 -133t139 -334q0 -133 -70 -252l-418 -747h-286l311 532h-33z" />
    <glyph glyph-name="colon" unicode=":" horiz-adv-x="692" 
d="M168 877q0 75 49 123t123 48t123 -48q49 -50 49 -124t-49 -122q-49 -49 -123 -49t-123 49t-49 123zM168 160q0 74 49 123t123 49t123 -49t49 -123t-49 -123t-123 -49t-123 49t-49 123z" />
    <glyph glyph-name="semicolon" unicode=";" horiz-adv-x="692" 
d="M166 877q0 75 49 123t123 48t123 -48q49 -50 49 -124t-49 -122q-49 -49 -123 -49t-123 49t-49 123zM203 -319h-178l153 618h342z" />
    <glyph glyph-name="less" unicode="&#x3c;" horiz-adv-x="997" 
d="M893 98l-801 418v238l801 417v-268l-516 -268l516 -268v-269z" />
    <glyph glyph-name="equal" unicode="=" horiz-adv-x="1263" 
d="M1079 340h-895v221h895v-221zM1079 709h-895v221h895v-221z" />
    <glyph glyph-name="greater" unicode="&#x3e;" horiz-adv-x="997" 
d="M104 1171l801 -417v-238l-801 -418v269l517 268l-517 268v268z" />
    <glyph glyph-name="question" unicode="?" horiz-adv-x="942" 
d="M303 157q0 71 50 121t120 50t120 -50t50 -121t-49 -120t-121 -49t-121 49t-49 120zM190 698q0 182 222 267q116 43 160 81t44 88t-36 76t-97 27q-135 0 -174 -137l-223 37q25 139 130 226t269 87q163 0 267 -88t104 -236q0 -115 -68 -178q-61 -60 -190 -112t-164 -78
t-35 -61q0 -36 22 -56t52 -20q84 0 117 94l180 -68q-74 -211 -306 -211q-116 0 -195 73t-79 189z" />
    <glyph glyph-name="at" unicode="@" horiz-adv-x="1855" 
d="M741 596q0 -166 148 -166q92 0 153 71q62 71 62 164q1 183 -166 183q-82 0 -140 -70t-57 -182zM963 -193q-373 0 -607 228q-233 229 -233 599t237 603q238 233 614 233t580 -206t203 -543q0 -223 -107 -361t-282 -139q-76 0 -137 40t-86 101q-115 -141 -279 -141
q-164 -1 -262 105t-98 287t119 313t323 131q123 0 213 -78l23 63h170l-41 -448l-2 -53l-2 -6q0 -104 80 -105q123 0 122 301q0 258 -146 394q-146 137 -393 137t-425 -170t-178 -476q0 -147 53 -265q95 -211 331 -297q103 -38 185 -38t160 4q162 18 352 109l80 -199
q-263 -123 -567 -123z" />
    <glyph glyph-name="A" unicode="A" horiz-adv-x="1257" 
d="M780 584l-151 497l-152 -497h303zM1247 0h-286l-105 338h-455l-104 -338h-287l486 1434h266z" />
    <glyph glyph-name="B" unicode="B" horiz-adv-x="1277" 
d="M694 631h-243v-385h243q231 0 232 192q-1 193 -232 193zM688 1188h-237v-311h243q86 1 127 37t41 118t-42 119t-132 37zM184 0v1434h525q193 0 301 -100t108 -287q0 -88 -37 -159t-104 -106q215 -90 215 -350q0 -208 -125 -320t-348 -112h-535z" />
    <glyph glyph-name="C" unicode="C" horiz-adv-x="1433" 
d="M776 1204q-176 0 -293 -125q-115 -127 -115 -363t115 -362q117 -125 293 -125q258 0 354 250l240 -61q-51 -207 -206 -321t-388 -113q-283 0 -481 194q-197 195 -197 539q0 345 198 539t480 194q233 0 388 -114t206 -320l-240 -62q-96 250 -354 250z" />
    <glyph glyph-name="D" unicode="D" horiz-adv-x="1398" 
d="M451 1188v-942h98q188 0 323 92q158 104 158 378t-158 380q-135 92 -323 92h-98zM184 0v1434h449q268 0 460 -170q95 -84 151 -226t56 -321t-56 -321t-151 -226q-192 -170 -460 -170h-449z" />
    <glyph glyph-name="E" unicode="E" horiz-adv-x="1177" 
d="M184 0v1434h887v-246h-620v-301h497v-246h-497v-395h641v-246h-908z" />
    <glyph glyph-name="F" unicode="F" horiz-adv-x="1150" 
d="M184 0v1434h908v-246h-641v-328h516v-246h-516v-614h-267z" />
    <glyph glyph-name="G" unicode="G" horiz-adv-x="1499" 
d="M1354 0h-224l-22 154q-115 -170 -348 -170q-276 0 -469 192t-193 541t199 541t483 192q227 0 383 -122t213 -331l-243 -63q-111 270 -353 270q-188 0 -300 -127t-112 -363t110 -361q110 -124 296 -124q139 0 223 78t99 195h-267v221h525v-723z" />
    <glyph glyph-name="H" unicode="H" horiz-adv-x="1474" 
d="M451 0h-267v1434h267v-545h573v545h266v-1434h-266v643h-573v-643z" />
    <glyph glyph-name="I" unicode="I" horiz-adv-x="634" 
d="M184 1434h267v-1434h-267v1434z" />
    <glyph glyph-name="J" unicode="J" horiz-adv-x="1054" 
d="M637 475v959h266v-930q0 -272 -115 -396t-342 -124q-186 0 -303 98q-116 98 -139 272l262 56q33 -180 180 -181q96 -1 144 57t47 189z" />
    <glyph glyph-name="K" unicode="K" horiz-adv-x="1316" 
d="M184 0v1434h267v-533l489 533h328l-582 -641l623 -793h-338l-520 684v-684h-267z" />
    <glyph glyph-name="L" unicode="L" horiz-adv-x="1087" 
d="M184 0v1434h267v-1188h608v-246h-875z" />
    <glyph glyph-name="M" unicode="M" horiz-adv-x="1642" 
d="M451 0h-267v1434h299l338 -895l338 895h299v-1434h-266v885l-274 -754h-193l-274 754v-885z" />
    <glyph glyph-name="N" unicode="N" horiz-adv-x="1441" 
d="M991 1434h266v-1434h-280l-526 946v-946h-267v1434h281l526 -947v947z" />
    <glyph glyph-name="O" unicode="O" horiz-adv-x="1548" 
d="M775 1204q-175 0 -292 -123q-115 -125 -115 -365t115 -364q117 -123 292 -123t288 123q117 122 117 364t-117 365q-113 123 -288 123zM774 1450q401 0 580 -324q96 -170 96 -406t-93 -408t-247 -253q-150 -76 -336 -75q-397 0 -581 323q-95 167 -95 405t93 410t246 250
t337 78z" />
    <glyph glyph-name="P" unicode="P" horiz-adv-x="1212" 
d="M451 807h264q188 0 188 190t-188 191h-264v-381zM725 561h-274v-561h-267v1434h541q215 0 332 -118t117 -319t-117 -319t-332 -117z" />
    <glyph glyph-name="Q" unicode="Q" horiz-adv-x="1548" 
d="M1180 717q0 242 -117 364q-113 123 -288 123t-292 -123q-115 -125 -115 -365t115 -364q117 -123 291 -123q123 1 219 62l-186 188l186 185l156 -158q31 90 31 211zM1450 712q0 -238 -96 -409l137 -135l-186 -184l-125 122q-168 -123 -406 -122q-397 0 -581 323
q-94 168 -95 410q0 242 95 409q184 324 581 324q184 0 337 -78t246 -250t93 -410z" />
    <glyph glyph-name="R" unicode="R" horiz-adv-x="1337" 
d="M451 864h258q168 0 168 162t-168 162h-258v-324zM1143 1026q0 -142 -70 -244t-199 -141l398 -641h-297l-385 618h-139v-618h-267v1434h523q207 0 321 -111t115 -297z" />
    <glyph glyph-name="S" unicode="S" horiz-adv-x="1099" 
d="M412 1073q0 -111 215 -213q296 -127 363 -271q34 -71 34 -159q0 -207 -124 -327q-124 -119 -322 -119t-336 114q-135 117 -170 287l215 135q82 -291 284 -291q186 0 187 187q0 111 -213 200q-80 35 -135 65t-121 83q-137 110 -131 297q0 165 112 277t279 112
q291 0 414 -260l-215 -137q-78 152 -199 151q-59 0 -98 -37t-39 -94z" />
    <glyph glyph-name="T" unicode="T" horiz-adv-x="1093" 
d="M414 1188h-398v246h1061v-246h-397v-1188h-266v1188z" />
    <glyph glyph-name="U" unicode="U" horiz-adv-x="1343" 
d="M940 1434h266v-889q0 -273 -142 -417t-392 -144t-392 144t-143 417v889h266v-893q0 -311 269 -312q268 0 268 312v893z" />
    <glyph glyph-name="V" unicode="V" horiz-adv-x="1236" 
d="M1235 1434l-481 -1434h-271l-481 1434h295l321 -1061l322 1061h295z" />
    <glyph glyph-name="W" unicode="W" horiz-adv-x="1884" 
d="M1325 379l240 1055h282l-374 -1434h-271l-260 844l-260 -844h-270l-375 1434h282l240 -1055l268 903h230z" />
    <glyph glyph-name="X" unicode="X" horiz-adv-x="1212" 
d="M606 1028l234 406h290l-378 -660l446 -774h-295l-297 518l-297 -518h-295l447 774l-379 660h291z" />
    <glyph glyph-name="Y" unicode="Y" horiz-adv-x="1093" 
d="M680 0h-266v610l-414 824h287l260 -557l260 557h287l-414 -824v-610z" />
    <glyph glyph-name="Z" unicode="Z" horiz-adv-x="1142" 
d="M96 1188v246h951v-123l-615 -1065h643v-246h-1014v123l621 1065h-586z" />
    <glyph glyph-name="bracketleft" unicode="[" horiz-adv-x="720" 
d="M655 -102h-471v1638h471v-221h-225v-1196h225v-221z" />
    <glyph glyph-name="backslash" unicode="\" horiz-adv-x="1126" 
d="M864 -102l-893 1638h246l893 -1638h-246z" />
    <glyph glyph-name="bracketright" unicode="]" horiz-adv-x="720" 
d="M66 1536h471v-1638h-471v221h225v1196h-225v221z" />
    <glyph glyph-name="asciicircum" unicode="^" horiz-adv-x="1226" 
d="M104 825l400 609h219l399 -609h-245l-263 387l-264 -387h-246z" />
    <glyph glyph-name="underscore" unicode="_" horiz-adv-x="1034" 
d="M983 -221h-932v221h932v-221z" />
    <glyph glyph-name="grave" unicode="`" horiz-adv-x="532" 
d="M27 1450h344l131 -303h-195z" />
    <glyph glyph-name="a" unicode="a" horiz-adv-x="1052" 
d="M344 301q0 -43 29 -72t78 -28q95 0 167 59t72 154v20h-170q-176 0 -176 -133zM510 1049q434 0 434 -433v-616h-209l-26 131q-119 -147 -318 -147q-139 0 -226 84t-87 234t122 241q122 92 318 92h172v45q0 152 -180 151q-139 1 -178 -118l-215 49q25 129 132 208
q108 79 261 79z" />
    <glyph glyph-name="b" unicode="b" horiz-adv-x="1226" 
d="M395 515q0 -149 66 -232q68 -82 172 -82t172 83q67 83 67 231t-67 233q-68 84 -172 84t-172 -84q-66 -84 -66 -233zM668 -16q-82 0 -153 38t-97 84v-106h-254v1450h254v-512q36 47 106 79t144 32q225 -1 348 -143t123 -390t-123 -390t-348 -142z" />
    <glyph glyph-name="c" unicode="c" horiz-adv-x="1128" 
d="M592 -16q-240 0 -372 150t-132 382q0 231 132 382t372 151q350 0 469 -295l-227 -92q-84 170 -242 169q-115 0 -176 -85q-62 -85 -62 -230t62 -230t176 -85q158 0 242 170l227 -92q-119 -295 -469 -295z" />
    <glyph glyph-name="d" unicode="d" horiz-adv-x="1226" 
d="M354 515q0 -149 68 -231t173 -83q105 0 169 82q68 82 68 231q0 150 -68 234q-66 84 -170 84t-172 -84t-68 -233zM559 1049q73 0 143 -32t107 -79v512h254v-1450h-254v106q-27 -46 -97 -84t-153 -38q-225 0 -348 142t-123 390t123 390t348 143z" />
    <glyph glyph-name="e" unicode="e" horiz-adv-x="1138" 
d="M584 831q-88 0 -148 -56t-76 -140h445q-43 196 -221 196zM1065 539v-105h-711q4 -98 71 -166t173 -67q158 0 250 159l205 -75q-131 -301 -469 -301q-126 0 -226 48t-156 127t-85 170t-29 187t29 187t85 170t155 127t223 48t221 -46q96 -46 153 -125q111 -152 111 -338z
" />
    <glyph glyph-name="f" unicode="f" horiz-adv-x="753" 
d="M197 815h-131v217h131v53q0 181 93 273t263 92q115 0 192 -41l-55 -205q-70 29 -123 29q-117 0 -116 -129v-72h217v-217h-217v-815h-254v815z" />
    <glyph glyph-name="g" unicode="g" horiz-adv-x="1054" 
d="M403 701q0 -62 40 -101q39 -39 101 -39t102 39t40 101q0 63 -40 103t-101 40t-102 -40q-40 -41 -40 -103zM596 12h-139q-76 0 -119 8q-23 -34 -23 -100q1 -66 63 -104t169 -37q215 0 215 127q0 106 -166 106zM166 716q0 140 108 236q109 96 271 97q102 0 190 -45l195 102
l100 -168l-147 -74q41 -72 41 -164q0 -156 -108 -250t-271 -94q-76 0 -150 23q-49 -27 -49 -78q0 -76 96 -76h211q167 0 265 -80t98 -211t-72 -215q-131 -154 -397 -153q-207 0 -338 88q-129 88 -129 252q0 127 84 205q-53 66 -53 159q0 139 127 217q-72 89 -72 229z" />
    <glyph glyph-name="h" unicode="h" horiz-adv-x="1214" 
d="M164 0v1450h254v-584q115 182 327 183q152 0 237 -80t85 -232v-737h-254v647q0 184 -154 184q-104 0 -173 -104t-68 -291v-436h-254z" />
    <glyph glyph-name="i" unicode="i" horiz-adv-x="532" 
d="M139 0v1032h254v-1032h-254zM266 1493q70 0 117 -47t47 -117t-47 -117t-117 -47t-116 47q-47 47 -48 117q0 70 48 117q46 47 116 47z" />
    <glyph glyph-name="j" unicode="j" horiz-adv-x="532" 
d="M266 1493q70 0 117 -47t47 -117t-47 -117t-117 -47t-116 47q-47 47 -48 117q0 70 48 117q46 47 116 47zM139 88v944h254v-913q0 -240 -104 -371t-328 -182l-61 223q125 33 182 99t57 200z" />
    <glyph glyph-name="k" unicode="k" horiz-adv-x="1099" 
d="M164 0v1450h254v-823l336 405h313l-414 -475l441 -557h-312l-364 487v-487h-254z" />
    <glyph glyph-name="l" unicode="l" horiz-adv-x="569" 
d="M160 0v1450h254v-1450h-254z" />
    <glyph glyph-name="m" unicode="m" horiz-adv-x="1773" 
d="M1022 401v-401h-254v688q0 143 -127 143q-100 0 -162 -118q-61 -119 -61 -334v-379h-254v1032h254v-166q121 182 297 183q102 1 180 -55t109 -158q121 213 315 213q143 0 225 -84t82 -234v-731h-254v688q0 143 -127 143q-100 0 -162 -112q-61 -113 -61 -318z" />
    <glyph glyph-name="n" unicode="n" horiz-adv-x="1202" 
d="M164 0v1032h254v-166q127 182 319 183q145 0 231 -81t87 -231v-737h-254v662q0 170 -148 169q-100 -1 -168 -115t-67 -304v-412h-254z" />
    <glyph glyph-name="o" unicode="o" horiz-adv-x="1224" 
d="M354 516q0 -135 71 -225t187 -90t189 90q70 90 69 225q0 135 -70 225t-188 90q-116 0 -187 -90t-71 -225zM88 514q0 231 141 383t383 152t383 -152t141 -383t-140 -381q-142 -150 -384 -150t-383 150t-141 381z" />
    <glyph glyph-name="p" unicode="p" horiz-adv-x="1226" 
d="M395 515q0 -149 66 -232q68 -82 172 -82t172 83q67 83 67 231t-67 233q-68 84 -172 84t-172 -84q-66 -84 -66 -233zM668 -16q-74 0 -144 32t-106 78v-512h-254v1450h254v-106q28 47 98 85t152 38q225 -1 348 -143t123 -390t-123 -390t-348 -142z" />
    <glyph glyph-name="q" unicode="q" horiz-adv-x="1226" 
d="M354 515q0 -149 68 -231t173 -83q105 0 169 82q68 82 68 231q0 150 -68 234q-66 84 -170 84t-172 -84t-68 -233zM559 1049q82 0 153 -38t97 -85v106h254v-1450h-254v512q-37 -47 -107 -79t-143 -31q-225 0 -348 142t-123 390t123 390t348 143z" />
    <glyph glyph-name="r" unicode="r" horiz-adv-x="864" 
d="M418 367v-367h-254v1032h254v-168q117 184 305 185q61 0 125 -21l-47 -235q-47 29 -107 28q-128 1 -202 -113t-74 -341z" />
    <glyph glyph-name="s" unicode="s" horiz-adv-x="933" 
d="M473 1049q100 -1 187 -47t137 -121l-152 -140q-72 90 -172 90q-41 -1 -67 -23t-27 -63q0 -63 98 -100l162 -57q13 -6 71 -37t76 -55q63 -72 64 -168q0 -140 -101 -242t-257 -102t-264 83t-154 195l202 109q61 -170 207 -170q127 0 127 110q0 51 -55 78q-30 17 -108 45
t-95 35q-104 45 -156 109t-52 179q0 116 90 204q92 88 239 88z" />
    <glyph glyph-name="t" unicode="t" horiz-adv-x="802" 
d="M197 365v450h-160v217h160v258l254 160v-418h272v-217h-272v-446q1 -167 127 -169q62 0 106 25l59 -205q-80 -37 -168 -36q-180 0 -279 97t-99 284z" />
    <glyph glyph-name="u" unicode="u" horiz-adv-x="1202" 
d="M1038 1032v-1032h-254v166q-127 -182 -319 -182q-145 0 -232 81q-86 81 -86 230v737h254v-661q0 -170 148 -170q100 1 168 115t67 305v411h254z" />
    <glyph glyph-name="v" unicode="v" horiz-adv-x="950" 
d="M360 0l-350 1032h256l209 -719l209 719h256l-350 -1032h-230z" />
    <glyph glyph-name="w" unicode="w" horiz-adv-x="1568" 
d="M1077 324l185 708h256l-330 -1032h-225l-179 668l-178 -668h-225l-330 1032h256l185 -708l174 708h237z" />
    <glyph glyph-name="x" unicode="x" horiz-adv-x="987" 
d="M494 764l168 268h266l-299 -481l342 -551h-266l-211 336l-211 -336h-267l342 551l-299 481h267z" />
    <glyph glyph-name="y" unicode="y" horiz-adv-x="985" 
d="M381 66l-375 966h256l240 -647l225 647h254l-532 -1450h-246z" />
    <glyph glyph-name="z" unicode="z" horiz-adv-x="952" 
d="M117 815v217h729v-98l-443 -717h471v-217h-790v98l446 717h-413z" />
    <glyph glyph-name="braceleft" unicode="{" horiz-adv-x="708" 
d="M279 102v340q0 94 -36 129t-128 35v221q92 0 128 35t36 129v340q0 93 56 149t148 56h181v-221h-56q-49 1 -66 -19t-18 -73v-305q0 -104 -36 -146t-115 -55q79 -12 115 -54t36 -147v-305q0 -53 18 -73t66 -19h56v-221h-181q-92 0 -148 56t-56 148z" />
    <glyph glyph-name="bar" unicode="|" horiz-adv-x="618" 
d="M184 -102v1638h250v-1638h-250z" />
    <glyph glyph-name="braceright" unicode="}" horiz-adv-x="708" 
d="M430 442v-340q0 -92 -56 -148t-149 -56h-180v221h55q49 0 67 19q17 19 17 73v305q0 104 36 146t116 55q-80 12 -116 54t-36 147v305q0 53 -17 72t-67 20h-55v221h180q93 0 149 -56t56 -149v-340q0 -94 36 -129t128 -35v-221q-92 0 -128 -35t-36 -129z" />
    <glyph glyph-name="asciitilde" unicode="~" horiz-adv-x="1339" 
d="M458 879q96 0 220 -62q129 -59 192 -59q104 0 187 104l131 -141q-39 -96 -125 -162q-86 -65 -179 -65t-220 60t-195 60q-104 0 -186 -104l-131 141q39 96 124 162q86 66 182 66z" />
    <glyph glyph-name="uni00A0" unicode="&#xa0;" horiz-adv-x="507" 
 />
    <glyph glyph-name="exclamdown" unicode="&#xa1;" horiz-adv-x="737" 
d="M362 688q-70 0 -120 50t-49 121q0 71 49 120q48 49 120 49t121 -49t49 -120t-50 -121t-120 -50zM473 520l57 -938h-335l57 938h221z" />
    <glyph glyph-name="cent" unicode="&#xa2;" horiz-adv-x="1193" 
d="M739 -102h-250v299q-180 37 -279 178t-99 342t99 342t279 178v299h250v-299q248 -45 344 -283l-227 -92q-84 170 -242 170q-115 0 -176 -85t-61 -230t61 -231t176 -85q158 0 242 170l227 -92q-96 -238 -344 -282v-299z" />
    <glyph glyph-name="sterling" unicode="&#xa3;" horiz-adv-x="1140" 
d="M109 627v237h98q-33 92 -33 160q0 186 120 306t316 120q158 0 267 -74t157 -209l-211 -100q-68 145 -213 145q-80 0 -131 -52t-51 -141t16 -155h355v-237h-283q6 -37 6 -78q0 -111 -40 -187t-126 -147q109 66 203 66q51 0 113 -31t106 -31q45 0 79 25t71 90l176 -111
q-135 -240 -338 -239q-76 0 -163 38t-148 37q-106 0 -238 -75l-141 155l110 109q111 123 111 254q0 55 -18 125h-170z" />
    <glyph glyph-name="currency" unicode="&#xa4;" horiz-adv-x="1167" 
d="M584 811q-78 0 -122 -50t-44 -131t43 -134q47 -50 124 -50t121 50t44 134q0 83 -45 130q-43 51 -121 51zM172 629q0 111 51 202l-182 142l199 198l141 -182q90 53 203 53t202 -53l142 182l198 -198l-182 -142q51 -93 51 -203t-51 -202l182 -141l-198 -199l-142 182
q-90 -53 -202 -53t-203 53l-141 -182l-199 199l182 141q-51 92 -51 203z" />
    <glyph glyph-name="yen" unicode="&#xa5;" horiz-adv-x="1101" 
d="M977 831v-221h-293v-147h293v-221h-293v-242h-266v242h-293v221h293v147h-293v221h186l-295 603h287l248 -557l248 557h286l-294 -603h186z" />
    <glyph glyph-name="brokenbar" unicode="&#xa6;" horiz-adv-x="618" 
d="M434 1536v-715h-250v715h250zM184 -102v714h250v-714h-250z" />
    <glyph glyph-name="section" unicode="&#xa7;" horiz-adv-x="1124" 
d="M782 434q0 74 -84 125q-35 23 -87 46t-205 100q-62 -45 -62 -121t84 -127q29 -18 82 -47l106 -50q63 -29 105 -49q61 49 61 123zM1004 455q0 -180 -121 -285q51 -88 51 -205q0 -176 -108 -288t-263 -111q-328 0 -409 309l225 74q53 -145 184 -146q57 0 91 38t34 111
t-72 138q-27 27 -116 72l-162 82q-215 109 -215 317q0 180 121 285q-51 88 -51 205q0 176 108 288q109 111 262 111q328 0 410 -309l-225 -74q-53 145 -185 145q-57 0 -91 -38t-34 -108q0 -71 70 -140q25 -23 117 -72l80 -41q16 -8 45 -21t38 -20q216 -108 216 -317z" />
    <glyph glyph-name="dieresis" unicode="&#xa8;" horiz-adv-x="780" 
d="M457 1333q0 63 41 105t104 41q62 0 104 -41q42 -40 42 -104t-41 -105t-105 -41t-104 41q-41 41 -41 104zM33 1333q0 63 41 105t104 41q62 0 104 -41q42 -40 42 -104t-41 -105t-105 -41t-104 41q-41 41 -41 104z" />
    <glyph glyph-name="copyright" unicode="&#xa9;" horiz-adv-x="1822" 
d="M897 274q-160 0 -279 117t-118 326q0 209 118 325t278 117q160 0 266 -76t128 -213l-198 -39q-43 133 -181 134q-82 0 -134 -70q-52 -71 -52 -179t52 -178t134 -69q138 0 181 133l198 -39q-20 -137 -126 -213t-267 -76zM348 717q0 -254 158 -418t406 -164t405 164
q158 164 158 418t-158 418q-157 164 -405 164t-406 -164t-158 -418zM123 716q0 338 225 570q227 230 564 230q336 0 562 -230t226 -569t-225 -569t-563 -230t-564 229q-225 231 -225 569z" />
    <glyph glyph-name="ordfeminine" unicode="&#xaa;" horiz-adv-x="919" 
d="M328 862q0 -86 84 -86q76 0 132 48t56 120v23h-135q-63 0 -100 -31t-37 -74zM799 1102v-488h-166l-19 107q-98 -115 -249 -115q-106 0 -177 67q-70 67 -70 183t97 190q96 73 250 72h135v35q0 119 -141 119q-109 0 -142 -94l-167 39q18 100 102 162t207 63q340 0 340 -340
z" />
    <glyph glyph-name="guillemotleft" unicode="&#xab;" horiz-adv-x="1439" 
d="M1337 104l-632 447v168l632 446v-262l-379 -268l379 -268v-263zM723 104l-633 447v168l633 446v-262l-379 -268l379 -268v-263z" />
    <glyph glyph-name="logicalnot" unicode="&#xac;" horiz-adv-x="1220" 
d="M823 604h-700v230h954v-543h-254v313z" />
    <glyph glyph-name="uni00AD" unicode="&#xad;" horiz-adv-x="1030" 
d="M897 539h-764v221h764v-221z" />
    <glyph glyph-name="registered" unicode="&#xae;" horiz-adv-x="1822" 
d="M918 983h-111v-160h111q98 0 98 80t-98 80zM807 653v-372h-215v872h346q287 0 287 -250q0 -203 -178 -239l239 -383h-231l-224 372h-24zM348 717q0 -254 158 -418t406 -164t405 164q158 164 158 418t-158 418q-157 164 -405 164t-406 -164t-158 -418zM123 716
q0 338 225 570q227 230 564 230q336 0 562 -230t226 -569t-225 -569t-563 -230t-564 229q-225 231 -225 569z" />
    <glyph glyph-name="overscore" unicode="&#xaf;" horiz-adv-x="587" 
d="M569 1266h-551v225h551v-225z" />
    <glyph glyph-name="degree" unicode="&#xb0;" horiz-adv-x="745" 
d="M293 1214q-1 -38 21 -60t59 -22t59 24q22 22 21 58q1 36 -21 60q-22 23 -59 23t-59 -23t-21 -60zM123 1213q0 105 72 177t178 72t178 -72t72 -176q0 -106 -71 -177t-179 -71t-179 71t-71 176z" />
    <glyph glyph-name="plusminus" unicode="&#xb1;" horiz-adv-x="1210" 
d="M1094 0h-975v221h975v-221zM496 928v377h221v-377h377v-221h-377v-377h-221v377h-377v221h377z" />
    <glyph glyph-name="uni00B2" unicode="&#xb2;" horiz-adv-x="776" 
d="M664 614h-555v72l297 363q55 67 55 145t-80 78t-102 -109l-164 47q12 102 87 167q76 65 190 65t187 -68t73 -176t-83 -209l-168 -205h263v-170z" />
    <glyph glyph-name="uni00B3" unicode="&#xb3;" horiz-adv-x="794" 
d="M393 776q99 0 99 115t-99 115q-37 0 -76 -21l-81 102l135 177h-226v170h486v-72l-182 -234q97 0 165 -70t68 -184q0 -116 -74 -192t-204 -76t-210 72t-85 186l163 21q23 -109 121 -109z" />
    <glyph glyph-name="acute" unicode="&#xb4;" horiz-adv-x="532" 
d="M225 1147h-194l131 303h344z" />
    <glyph glyph-name="mu" unicode="&#xb5;" horiz-adv-x="1202" 
d="M1038 1032v-1032h-254v166q-127 -182 -319 -182q-33 0 -64 6v-408h-254v1450h254v-661q0 -170 148 -170q100 1 168 115t67 305v411h254z" />
    <glyph glyph-name="mu" unicode="&#x3bc;" horiz-adv-x="1202" 
d="M1038 1032v-1032h-254v166q-127 -182 -319 -182q-33 0 -64 6v-408h-254v1450h254v-661q0 -170 148 -170q100 1 168 115t67 305v411h254z" />
    <glyph glyph-name="paragraph" unicode="&#xb6;" horiz-adv-x="1523" 
d="M575 1434h826v-222h-127v-1630h-246v1630h-207v-1630h-246v922q-190 0 -329 135q-135 139 -135 331q-1 192 135 328t329 136z" />
    <glyph glyph-name="middot" unicode="&#xb7;" horiz-adv-x="671" 
d="M164 754q0 74 49 123t123 49t123 -49t49 -123t-49 -123t-123 -49t-123 49t-49 123z" />
    <glyph glyph-name="cedilla" unicode="&#xb8;" horiz-adv-x="493" 
d="M299 -123h184l-170 -422l-303 135z" />
    <glyph glyph-name="uni00B9" unicode="&#xb9;" horiz-adv-x="626" 
d="M463 1434v-820h-182v570l-175 -78v194l281 134h76z" />
    <glyph glyph-name="ordmasculine" unicode="&#xba;" horiz-adv-x="1069" 
d="M332 1024q0 -104 54 -176t148 -72t149 71q54 71 54 177t-54 177q-55 71 -149 71t-148 -72t-54 -176zM534 606q-190 0 -301 119t-111 300t112 299q110 118 300 118t302 -118q110 -118 110 -299t-110 -302q-112 -117 -302 -117z" />
    <glyph glyph-name="guillemotright" unicode="&#xbb;" horiz-adv-x="1439" 
d="M102 1165l633 -446v-168l-633 -447v263l379 268l-379 268v262zM717 1165l633 -446v-168l-633 -447v263l379 268l-379 268v262z" />
    <glyph glyph-name="onequarter" unicode="&#xbc;" horiz-adv-x="1767" 
d="M1333 303v250l-129 -250h129zM1516 0h-183v133h-342v92l330 594h195v-516h88v-170h-88v-133zM500 1434v-820h-183v570l-174 -78v194l281 134h76zM268 41l1102 1470l148 -116l-1102 -1473z" />
    <glyph glyph-name="onehalf" unicode="&#xbd;" horiz-adv-x="1880" 
d="M1716 0h-555v72l297 362q55 63 55 143t-77 80q-82 0 -105 -108l-164 47q12 102 87 167t190 65q116 0 188 -68t72 -176t-82 -209l-168 -205h262v-170zM500 1434v-820h-183v570l-174 -78v194l281 134h76zM268 41l1102 1470l148 -116l-1102 -1473z" />
    <glyph glyph-name="threequarters" unicode="&#xbe;" horiz-adv-x="1722" 
d="M1339 303v250l-129 -250h129zM1522 0h-183v133h-342v92l330 594h195v-516h88v-170h-88v-133zM393 776q99 0 99 115t-99 115q-37 0 -76 -21l-81 102l135 177h-226v170h486v-72l-182 -234q97 0 165 -70t68 -184q0 -116 -74 -192t-204 -76t-210 72t-85 186l163 21
q23 -109 121 -109zM313 41l1102 1470l148 -116l-1102 -1473z" />
    <glyph glyph-name="questiondown" unicode="&#xbf;" horiz-adv-x="966" 
d="M651 859q0 -71 -50 -121t-120 -50t-120 50t-50 121t49 120t121 49t121 -49t49 -120zM764 317q0 -182 -221 -266q-117 -43 -161 -81t-44 -88t36 -77t97 -26q135 0 174 137l223 -37q-25 -139 -130 -226t-269 -87t-267 88q-104 88 -104 218t66 196q66 61 194 112t162 77
q35 26 35 62t-21 56q-22 20 -53 20q-83 0 -116 -94l-181 68q74 211 306 211q116 0 195 -73t79 -190z" />
    <glyph glyph-name="Agrave" unicode="&#xc0;" horiz-adv-x="1257" 
d="M307 1851h344l131 -303h-194zM780 584l-151 497l-152 -497h303zM1247 0h-286l-105 338h-455l-104 -338h-287l486 1434h266z" />
    <glyph glyph-name="Aacute" unicode="&#xc1;" horiz-adv-x="1257" 
d="M647 1548h-194l131 303h344zM780 584l-151 497l-152 -497h303zM1247 0h-286l-105 338h-455l-104 -338h-287l486 1434h266z" />
    <glyph glyph-name="Acircumflex" unicode="&#xc2;" horiz-adv-x="1257" 
d="M489 1561h-245l350 381h70l350 -381h-246l-139 151zM780 584l-151 497l-152 -497h303zM1247 0h-286l-105 338h-455l-104 -338h-287l486 1434h266z" />
    <glyph glyph-name="Atilde" unicode="&#xc3;" horiz-adv-x="1257" 
d="M760 1774q68 0 131 88l133 -113q-34 -80 -104 -129t-145 -49t-153 42t-122 42q-68 0 -131 -88l-133 112q35 80 104 129q138 97 297 7q78 -41 123 -41zM780 584l-151 497l-152 -497h303zM1247 0h-286l-105 338h-455l-104 -338h-287l486 1434h266z" />
    <glyph glyph-name="Adieresis" unicode="&#xc4;" horiz-adv-x="1257" 
d="M696 1734q0 64 41 105t105 41t104 -41q41 -41 41 -104t-41 -105q-40 -42 -104 -41q-64 0 -105 41q-41 40 -41 104zM272 1734q0 64 41 105t105 41t104 -41q41 -41 41 -104t-41 -105q-40 -42 -104 -41q-64 0 -105 41q-41 40 -41 104zM780 584l-151 497l-152 -497h303z
M1247 0h-286l-105 338h-455l-104 -338h-287l486 1434h266z" />
    <glyph glyph-name="Aring" unicode="&#xc5;" horiz-adv-x="1257" 
d="M629 1808q-61 0 -61 -66t60 -65q62 -1 62 65t-61 66zM418 1742q0 90 59 150t151 60t152 -60t60 -149t-60 -149t-152 -60t-151 59t-59 149zM780 584l-151 497l-152 -497h303zM1247 0h-286l-105 338h-455l-104 -338h-287l486 1434h266z" />
    <glyph glyph-name="AE" unicode="&#xc6;" horiz-adv-x="1759" 
d="M766 1081h-27l-200 -497h227v497zM1653 1434v-246h-621v-301h498v-246h-498v-395h641v-246h-907v338h-328l-135 -338h-287l627 1434h1010z" />
    <glyph glyph-name="Ccedilla" unicode="&#xc7;" horiz-adv-x="1433" 
d="M766 -123h184l-170 -422l-303 135zM776 1204q-176 0 -293 -125q-115 -127 -115 -363t115 -362q117 -125 293 -125q258 0 354 250l240 -61q-51 -207 -206 -321t-388 -113q-283 0 -481 194q-197 195 -197 539q0 345 198 539t480 194q233 0 388 -114t206 -320l-240 -62
q-96 250 -354 250z" />
    <glyph glyph-name="Egrave" unicode="&#xc8;" horiz-adv-x="1177" 
d="M324 1851h344l131 -303h-195zM184 0v1434h887v-246h-620v-301h497v-246h-497v-395h641v-246h-908z" />
    <glyph glyph-name="Eacute" unicode="&#xc9;" horiz-adv-x="1177" 
d="M641 1548h-195l132 303h344zM184 0v1434h887v-246h-620v-301h497v-246h-497v-395h641v-246h-908z" />
    <glyph glyph-name="Ecircumflex" unicode="&#xca;" horiz-adv-x="1177" 
d="M500 1561h-246l350 381h70l350 -381h-246l-139 151zM184 0v1434h887v-246h-620v-301h497v-246h-497v-395h641v-246h-908z" />
    <glyph glyph-name="Edieresis" unicode="&#xcb;" horiz-adv-x="1177" 
d="M709 1734q0 64 41 105t104 41t104 -41t41 -104t-41 -105t-104 -41q-63 0 -104 41q-41 40 -41 104zM285 1734q0 64 41 105t104 41q62 0 104 -41t42 -104t-41 -105q-41 -41 -105 -41t-104 41q-41 40 -41 104zM184 0v1434h887v-246h-620v-301h497v-246h-497v-395h641v-246
h-908z" />
    <glyph glyph-name="Igrave" unicode="&#xcc;" horiz-adv-x="634" 
d="M-2 1851h344l131 -303h-194zM184 1434h267v-1434h-267v1434z" />
    <glyph glyph-name="Iacute" unicode="&#xcd;" horiz-adv-x="634" 
d="M356 1548h-194l131 303h344zM184 1434h267v-1434h-267v1434z" />
    <glyph glyph-name="Icircumflex" unicode="&#xce;" horiz-adv-x="634" 
d="M178 1561h-246l351 381h69l350 -381h-245l-140 151zM184 1434h267v-1434h-267v1434z" />
    <glyph glyph-name="Idieresis" unicode="&#xcf;" horiz-adv-x="634" 
d="M385 1734q0 64 41 105t104 41q62 0 104 -41t42 -104t-41 -105t-105 -41q-64 0 -104 41q-41 40 -41 104zM-39 1734q0 64 41 105t104 41q62 0 104 -41t42 -104t-41 -105t-105 -41q-64 0 -104 41q-41 40 -41 104zM184 1434h267v-1434h-267v1434z" />
    <glyph glyph-name="Eth" unicode="&#xd0;" horiz-adv-x="1449" 
d="M600 1188h-98v-361h190v-221h-190v-360h98q188 0 324 92q158 104 158 378t-158 380q-136 92 -324 92zM236 606h-191v221h191v607h448q268 0 460 -170q95 -84 151 -226q57 -142 57 -321t-56 -321t-152 -226q-192 -170 -460 -170h-448v606z" />
    <glyph glyph-name="Ntilde" unicode="&#xd1;" horiz-adv-x="1441" 
d="M840 1774q68 0 131 88l133 -113q-35 -80 -105 -129q-71 -49 -145 -49t-151 42t-123 42q-68 0 -131 -88l-134 112q35 80 105 129q136 96 297 7q78 -41 123 -41zM991 1434h266v-1434h-280l-526 946v-946h-267v1434h281l526 -947v947z" />
    <glyph glyph-name="Ograve" unicode="&#xd2;" horiz-adv-x="1548" 
d="M434 1851h344l131 -303h-194zM775 1204q-175 0 -292 -123q-115 -125 -115 -365t115 -364q117 -123 292 -123t288 123q117 122 117 364t-117 365q-113 123 -288 123zM774 1450q401 0 580 -324q96 -170 96 -406t-93 -408t-247 -253q-150 -76 -336 -75q-397 0 -581 323
q-95 167 -95 405t93 410t246 250t337 78z" />
    <glyph glyph-name="Oacute" unicode="&#xd3;" horiz-adv-x="1548" 
d="M793 1548h-195l131 303h344zM775 1204q-175 0 -292 -123q-115 -125 -115 -365t115 -364q117 -123 292 -123t288 123q117 122 117 364t-117 365q-113 123 -288 123zM774 1450q401 0 580 -324q96 -170 96 -406t-93 -408t-247 -253q-150 -76 -336 -75q-397 0 -581 323
q-95 167 -95 405t93 410t246 250t337 78z" />
    <glyph glyph-name="Ocircumflex" unicode="&#xd4;" horiz-adv-x="1548" 
d="M635 1561h-246l350 381h70l350 -381h-246l-139 151zM775 1204q-175 0 -292 -123q-115 -125 -115 -365t115 -364q117 -123 292 -123t288 123q117 122 117 364t-117 365q-113 123 -288 123zM774 1450q401 0 580 -324q96 -170 96 -406t-93 -408t-247 -253q-150 -76 -336 -75
q-397 0 -581 323q-95 167 -95 405t93 410t246 250t337 78z" />
    <glyph glyph-name="Otilde" unicode="&#xd5;" horiz-adv-x="1548" 
d="M905 1774q68 0 131 88l133 -113q-35 -80 -105 -129t-144 -49t-151 42t-124 42q-68 0 -131 -88l-133 112q35 80 104 129q137 96 297 7q78 -41 123 -41zM775 1204q-175 0 -292 -123q-115 -125 -115 -365t115 -364q117 -123 292 -123t288 123q117 122 117 364t-117 365
q-113 123 -288 123zM774 1450q401 0 580 -324q96 -170 96 -406t-93 -408t-247 -253q-150 -76 -336 -75q-397 0 -581 323q-95 167 -95 405t93 410t246 250t337 78z" />
    <glyph glyph-name="Odieresis" unicode="&#xd6;" horiz-adv-x="1548" 
d="M842 1734q0 64 41 105t104 41t105 -41t41 -104q0 -63 -41 -105q-40 -42 -104 -41q-64 0 -105 41q-41 40 -41 104zM418 1734q0 64 41 105t104 41t105 -41t41 -104q0 -63 -41 -105q-40 -42 -104 -41q-64 0 -105 41q-41 40 -41 104zM775 1204q-175 0 -292 -123
q-115 -125 -115 -365t115 -364q117 -123 292 -123t288 123q117 122 117 364t-117 365q-113 123 -288 123zM774 1450q401 0 580 -324q96 -170 96 -406t-93 -408t-247 -253q-150 -76 -336 -75q-397 0 -581 323q-95 167 -95 405t93 410t246 250t337 78z" />
    <glyph glyph-name="multiply" unicode="&#xd7;" horiz-adv-x="1208" 
d="M760 649l325 -323l-157 -158l-324 326l-323 -326l-158 158l326 323l-326 324l158 157l323 -325l324 325l157 -157z" />
    <glyph glyph-name="Oslash" unicode="&#xd8;" horiz-adv-x="1548" 
d="M774 1204q-174 0 -291 -123q-115 -125 -114 -364q0 -160 55 -275l551 711q-88 51 -201 51zM1180 717q0 160 -56 274l-551 -710q88 -51 201 -52q176 0 289 123q117 123 117 365zM1450 717q0 -240 -96 -410q-178 -324 -580 -323q-201 0 -358 92l-125 -160l-176 129l135 174
q-152 193 -152 498q0 242 95 409q184 324 581 324q201 0 359 -92l124 160l177 -129l-136 -175q152 -193 152 -497z" />
    <glyph glyph-name="Ugrave" unicode="&#xd9;" horiz-adv-x="1343" 
d="M344 1851h344l131 -303h-194zM940 1434h266v-889q0 -273 -142 -417t-392 -144t-392 144t-143 417v889h266v-893q0 -311 269 -312q268 0 268 312v893z" />
    <glyph glyph-name="Uacute" unicode="&#xda;" horiz-adv-x="1343" 
d="M715 1548h-195l131 303h344zM940 1434h266v-889q0 -273 -142 -417t-392 -144t-392 144t-143 417v889h266v-893q0 -311 269 -312q268 0 268 312v893z" />
    <glyph glyph-name="Ucircumflex" unicode="&#xdb;" horiz-adv-x="1343" 
d="M532 1561h-245l350 381h70l350 -381h-246l-139 151zM940 1434h266v-889q0 -273 -142 -417t-392 -144t-392 144t-143 417v889h266v-893q0 -311 269 -312q268 0 268 312v893z" />
    <glyph glyph-name="Udieresis" unicode="&#xdc;" horiz-adv-x="1343" 
d="M739 1734q0 64 41 105q40 41 104 41t105 -41t41 -104t-41 -105t-105 -41q-64 0 -104 41q-41 40 -41 104zM315 1734q0 64 41 105q40 41 104 41t105 -41t41 -104t-41 -105t-105 -41q-64 0 -104 41q-41 40 -41 104zM940 1434h266v-889q0 -273 -142 -417t-392 -144t-392 144
t-143 417v889h266v-893q0 -311 269 -312q268 0 268 312v893z" />
    <glyph glyph-name="Yacute" unicode="&#xdd;" horiz-adv-x="1093" 
d="M586 1548h-195l131 303h344zM680 0h-266v610l-414 824h287l260 -557l260 557h287l-414 -824v-610z" />
    <glyph glyph-name="Thorn" unicode="&#xde;" horiz-adv-x="1212" 
d="M451 526h264q188 0 188 190t-188 191h-264v-381zM725 281h-274v-281h-267v1434h267v-281h274q215 0 332 -118q117 -119 117 -319t-117 -318t-332 -117z" />
    <glyph glyph-name="germandbls" unicode="&#xdf;" horiz-adv-x="1167" 
d="M172 668h-106v229h106v127q0 202 112 314t298 112t288 -97t103 -266q0 -97 -46 -169t-118 -97q125 -33 202 -130t76 -242q0 -465 -456 -465q-68 0 -133 16v221q88 -16 129 -16q215 0 215 231t-246 232h-68v229h41q172 0 172 168q0 80 -42 124q-43 44 -117 44t-119 -53
t-45 -150v-1030h-246v668z" />
    <glyph glyph-name="agrave" unicode="&#xe0;" horiz-adv-x="1052" 
d="M209 1450h344l131 -303h-195zM344 301q0 -43 29 -72t78 -28q95 0 167 59t72 154v20h-170q-176 0 -176 -133zM510 1049q434 0 434 -433v-616h-209l-26 131q-119 -147 -318 -147q-139 0 -226 84t-87 234t122 241q122 92 318 92h172v45q0 152 -180 151q-139 1 -178 -118
l-215 49q25 129 132 208q108 79 261 79z" />
    <glyph glyph-name="aacute" unicode="&#xe1;" horiz-adv-x="1052" 
d="M549 1147h-195l131 303h344zM344 301q0 -43 29 -72t78 -28q95 0 167 59t72 154v20h-170q-176 0 -176 -133zM510 1049q434 0 434 -433v-616h-209l-26 131q-119 -147 -318 -147q-139 0 -226 84t-87 234t122 241q122 92 318 92h172v45q0 152 -180 151q-139 1 -178 -118
l-215 49q25 129 132 208q108 79 261 79z" />
    <glyph glyph-name="acircumflex" unicode="&#xe2;" horiz-adv-x="1052" 
d="M385 1159h-246l350 381h70l350 -381h-245l-140 152zM344 301q0 -43 29 -72t78 -28q95 0 167 59t72 154v20h-170q-176 0 -176 -133zM510 1049q434 0 434 -433v-616h-209l-26 131q-119 -147 -318 -147q-139 0 -226 84t-87 234t122 241q122 92 318 92h172v45q0 152 -180 151
q-139 1 -178 -118l-215 49q25 129 132 208q108 79 261 79z" />
    <glyph glyph-name="atilde" unicode="&#xe3;" horiz-adv-x="1052" 
d="M386 1456q76 0 152 -42q77 -42 121 -42q68 0 132 88l133 -112q-35 -80 -105 -129q-135 -94 -297 -9q-76 43 -123 43q-68 0 -131 -88l-133 113q35 80 105 129t146 49zM344 301q0 -43 29 -72t78 -28q95 0 167 59t72 154v20h-170q-176 0 -176 -133zM510 1049q434 0 434 -433
v-616h-209l-26 131q-119 -147 -318 -147q-139 0 -226 84t-87 234t122 241q122 92 318 92h172v45q0 152 -180 151q-139 1 -178 -118l-215 49q25 129 132 208q108 79 261 79z" />
    <glyph glyph-name="adieresis" unicode="&#xe4;" horiz-adv-x="1052" 
d="M586 1333q0 63 41 105t104 41q63 0 105 -41q42 -40 41 -104q0 -64 -41 -105q-40 -41 -104 -41t-105 41t-41 104zM162 1333q0 63 41 105t104 41q63 0 105 -41q42 -40 41 -104q0 -64 -41 -105q-40 -41 -104 -41t-105 41t-41 104zM344 301q0 -43 29 -72t78 -28q95 0 167 59
t72 154v20h-170q-176 0 -176 -133zM510 1049q434 0 434 -433v-616h-209l-26 131q-119 -147 -318 -147q-139 0 -226 84t-87 234t122 241q122 92 318 92h172v45q0 152 -180 151q-139 1 -178 -118l-215 49q25 129 132 208q108 79 261 79z" />
    <glyph glyph-name="aring" unicode="&#xe5;" horiz-adv-x="1052" 
d="M514 1407q-61 0 -61 -66t61 -65q61 0 61 66t-61 65zM303 1341q0 89 59 149q60 60 152 60t152 -59t59 -149q0 -90 -59 -150q-59 -59 -152 -59t-152 59t-59 149zM344 301q0 -43 29 -72t78 -28q95 0 167 59t72 154v20h-170q-176 0 -176 -133zM510 1049q434 0 434 -433v-616
h-209l-26 131q-119 -147 -318 -147q-139 0 -226 84t-87 234t122 241q122 92 318 92h172v45q0 152 -180 151q-139 1 -178 -118l-215 49q25 129 132 208q108 79 261 79z" />
    <glyph glyph-name="ae" unicode="&#xe6;" horiz-adv-x="1740" 
d="M1186 831q-88 0 -150 -56t-75 -140h446q-43 196 -221 196zM344 301q0 -43 29 -72t78 -28q95 0 167 59t72 154v20h-170q-176 0 -176 -133zM1667 539v-105h-711q4 -98 71 -166t173 -67q158 0 250 159l205 -75q-131 -301 -469 -301q-272 0 -410 215q-143 -215 -385 -215
q-139 0 -226 84t-87 234t122 241q122 92 318 92h172v45q0 152 -180 151q-139 0 -178 -118l-215 49q25 129 132 208q108 79 261 79q233 0 340 -125q131 125 336 125q121 -1 217 -47t153 -125q111 -152 111 -338z" />
    <glyph glyph-name="ccedilla" unicode="&#xe7;" horiz-adv-x="1128" 
d="M580 -123h184l-170 -422l-303 135zM592 -16q-240 0 -372 150t-132 382q0 231 132 382t372 151q350 0 469 -295l-227 -92q-84 170 -242 169q-115 0 -176 -85q-62 -85 -62 -230t62 -230t176 -85q158 0 242 170l227 -92q-119 -295 -469 -295z" />
    <glyph glyph-name="egrave" unicode="&#xe8;" horiz-adv-x="1138" 
d="M246 1450h344l131 -303h-195zM584 831q-88 0 -148 -56t-76 -140h445q-43 196 -221 196zM1065 539v-105h-711q4 -98 71 -166t173 -67q158 0 250 159l205 -75q-131 -301 -469 -301q-126 0 -226 48t-156 127t-85 170t-29 187t29 187t85 170t155 127t223 48t221 -46
q96 -46 153 -125q111 -152 111 -338z" />
    <glyph glyph-name="eacute" unicode="&#xe9;" horiz-adv-x="1138" 
d="M600 1147h-194l131 303h344zM584 831q-88 0 -148 -56t-76 -140h445q-43 196 -221 196zM1065 539v-105h-711q4 -98 71 -166t173 -67q158 0 250 159l205 -75q-131 -301 -469 -301q-126 0 -226 48t-156 127t-85 170t-29 187t29 187t85 170t155 127t223 48t221 -46
q96 -46 153 -125q111 -152 111 -338z" />
    <glyph glyph-name="ecircumflex" unicode="&#xea;" horiz-adv-x="1138" 
d="M444 1159h-245l350 381h69l351 -381h-246l-139 152zM584 831q-88 0 -148 -56t-76 -140h445q-43 196 -221 196zM1065 539v-105h-711q4 -98 71 -166t173 -67q158 0 250 159l205 -75q-131 -301 -469 -301q-126 0 -226 48t-156 127t-85 170t-29 187t29 187t85 170t155 127
t223 48t221 -46q96 -46 153 -125q111 -152 111 -338z" />
    <glyph glyph-name="edieresis" unicode="&#xeb;" horiz-adv-x="1138" 
d="M651 1333q0 63 41 105q40 42 104 41q64 0 105 -41q41 -40 41 -104t-41 -105t-105 -41t-104 41q-41 41 -41 104zM227 1333q0 63 41 105q40 42 104 41q64 0 105 -41q41 -40 41 -104t-41 -105t-105 -41t-104 41q-41 41 -41 104zM584 831q-88 0 -148 -56t-76 -140h445
q-43 196 -221 196zM1065 539v-105h-711q4 -98 71 -166t173 -67q158 0 250 159l205 -75q-131 -301 -469 -301q-126 0 -226 48t-156 127t-85 170t-29 187t29 187t85 170t155 127t223 48t221 -46q96 -46 153 -125q111 -152 111 -338z" />
    <glyph glyph-name="igrave" unicode="&#xec;" horiz-adv-x="532" 
d="M-33 1450h344l131 -303h-194zM139 0v1032h254v-1032h-254z" />
    <glyph glyph-name="iacute" unicode="&#xed;" horiz-adv-x="532" 
d="M285 1147h-195l131 303h344zM139 0v1032h254v-1032h-254z" />
    <glyph glyph-name="icircumflex" unicode="&#xee;" horiz-adv-x="532" 
d="M129 1159h-246l350 381h70l350 -381h-245l-140 152zM139 0v1032h254v-1032h-254z" />
    <glyph glyph-name="idieresis" unicode="&#xef;" horiz-adv-x="532" 
d="M334 1333q0 63 41 105t104 41q63 0 105 -41q42 -40 41 -104q0 -64 -41 -105q-40 -41 -104 -41t-105 41t-41 104zM-90 1333q0 63 41 105t104 41q63 0 105 -41q42 -40 41 -104q0 -64 -41 -105q-40 -41 -104 -41t-105 41t-41 104zM139 0v1032h254v-1032h-254z" />
    <glyph glyph-name="eth" unicode="&#xf0;" horiz-adv-x="1196" 
d="M596 831q-114 0 -178 -88t-64 -227t65 -227t179 -88t180 88q64 88 64 227q-2 139 -67 227t-179 88zM1108 569q0 -266 -134 -426q-134 -159 -376 -159t-377 149q-133 152 -133 383t133 383q135 150 377 150q88 0 166 -41q-57 104 -168 182l-66 -96l-153 108l59 86
q-98 51 -176 80l127 186q92 -39 172 -86l68 99l155 -107l-65 -96q201 -143 296 -336t95 -459z" />
    <glyph glyph-name="ntilde" unicode="&#xf1;" horiz-adv-x="1202" 
d="M482 1456q76 0 152 -42q77 -42 122 -42q68 0 131 88l133 -112q-35 -80 -105 -129q-135 -94 -297 -9q-78 43 -122 43q-68 0 -131 -88l-134 113q35 80 105 129t146 49zM164 0v1032h254v-166q127 182 319 183q145 0 231 -81t87 -231v-737h-254v662q0 170 -148 169
q-100 -1 -168 -115t-67 -304v-412h-254z" />
    <glyph glyph-name="ograve" unicode="&#xf2;" horiz-adv-x="1224" 
d="M293 1450h344l131 -303h-195zM354 516q0 -135 71 -225t187 -90t189 90q70 90 69 225q0 135 -70 225t-188 90q-116 0 -187 -90t-71 -225zM88 514q0 231 141 383t383 152t383 -152t141 -383t-140 -381q-142 -150 -384 -150t-383 150t-141 381z" />
    <glyph glyph-name="oacute" unicode="&#xf3;" horiz-adv-x="1224" 
d="M631 1147h-195l131 303h344zM354 516q0 -135 71 -225t187 -90t189 90q70 90 69 225q0 135 -70 225t-188 90q-116 0 -187 -90t-71 -225zM88 514q0 231 141 383t383 152t383 -152t141 -383t-140 -381q-142 -150 -384 -150t-383 150t-141 381z" />
    <glyph glyph-name="ocircumflex" unicode="&#xf4;" horiz-adv-x="1224" 
d="M473 1159h-246l351 381h69l350 -381h-245l-140 152zM354 516q0 -135 71 -225t187 -90t189 90q70 90 69 225q0 135 -70 225t-188 90q-116 0 -187 -90t-71 -225zM88 514q0 231 141 383t383 152t383 -152t141 -383t-140 -381q-142 -150 -384 -150t-383 150t-141 381z" />
    <glyph glyph-name="otilde" unicode="&#xf5;" horiz-adv-x="1224" 
d="M470 1456q76 0 152 -42q77 -42 121 -42q68 0 131 88l134 -112q-35 -80 -105 -129q-135 -94 -297 -9q-78 43 -123 43q-68 0 -131 -88l-133 113q35 80 105 129t146 49zM354 516q0 -135 71 -225t187 -90t189 90q70 90 69 225q0 135 -70 225t-188 90q-116 0 -187 -90
t-71 -225zM88 514q0 231 141 383t383 152t383 -152t141 -383t-140 -381q-142 -150 -384 -150t-383 150t-141 381z" />
    <glyph glyph-name="odieresis" unicode="&#xf6;" horiz-adv-x="1224" 
d="M680 1333q0 63 41 105t104 41q63 0 105 -41q42 -40 41 -104q0 -64 -41 -105q-40 -41 -104 -41t-105 41t-41 104zM256 1333q0 63 41 105t104 41q63 0 105 -41q42 -40 41 -104q0 -64 -41 -105q-40 -41 -104 -41t-105 41t-41 104zM354 516q0 -135 71 -225t187 -90t189 90
q70 90 69 225q0 135 -70 225t-188 90q-116 0 -187 -90t-71 -225zM88 514q0 231 141 383t383 152t383 -152t141 -383t-140 -381q-142 -150 -384 -150t-383 150t-141 381z" />
    <glyph glyph-name="divide" unicode="&#xf7;" horiz-adv-x="1146" 
d="M1061 535h-975v221h975v-221zM574 1208q74 0 122 -49q49 -49 49 -123t-49 -123q-48 -49 -122 -49t-123 49t-50 123t49 123t124 49zM574 426q74 0 122 -49q49 -49 49 -123t-49 -123q-48 -49 -122 -49t-123 49t-50 123t49 123t124 49z" />
    <glyph glyph-name="oslash" unicode="&#xf8;" horiz-adv-x="1224" 
d="M354 516q0 -74 21 -127l332 424q-43 18 -95 18q-118 0 -188 -90t-70 -225zM870 516q0 74 -20 127l-332 -424q43 -18 94 -18q117 0 189 90q69 90 69 225zM88 526q0 219 141 371t383 152q133 0 240 -50l123 156l176 -129l-127 -162q113 -139 113 -360q1 -221 -141 -371
t-384 -149q-133 0 -239 49l-123 -156l-176 129l127 162q-113 139 -113 358z" />
    <glyph glyph-name="ugrave" unicode="&#xf9;" horiz-adv-x="1202" 
d="M248 1450h344l131 -303h-195zM1038 1032v-1032h-254v166q-127 -182 -319 -182q-145 0 -232 81q-86 81 -86 230v737h254v-661q0 -170 148 -170q100 1 168 115t67 305v411h254z" />
    <glyph glyph-name="uacute" unicode="&#xfa;" horiz-adv-x="1202" 
d="M649 1147h-194l131 303h344zM1038 1032v-1032h-254v166q-127 -182 -319 -182q-145 0 -232 81q-86 81 -86 230v737h254v-661q0 -170 148 -170q100 1 168 115t67 305v411h254z" />
    <glyph glyph-name="ucircumflex" unicode="&#xfb;" horiz-adv-x="1202" 
d="M457 1159h-246l350 381h70l350 -381h-246l-139 152zM1038 1032v-1032h-254v166q-127 -182 -319 -182q-145 0 -232 81q-86 81 -86 230v737h254v-661q0 -170 148 -170q100 1 168 115t67 305v411h254z" />
    <glyph glyph-name="udieresis" unicode="&#xfc;" horiz-adv-x="1202" 
d="M678 1333q0 63 41 105t104 41q63 0 105 -41q42 -40 41 -104q0 -64 -41 -105q-40 -41 -104 -41t-105 41t-41 104zM254 1333q0 63 41 105t104 41q63 0 105 -41q42 -40 41 -104q0 -64 -41 -105q-40 -41 -104 -41t-105 41t-41 104zM1038 1032v-1032h-254v166
q-127 -182 -319 -182q-145 0 -232 81q-86 81 -86 230v737h254v-661q0 -170 148 -170q100 1 168 115t67 305v411h254z" />
    <glyph glyph-name="yacute" unicode="&#xfd;" horiz-adv-x="985" 
d="M537 1147h-195l131 303h344zM381 66l-375 966h256l240 -647l225 647h254l-532 -1450h-246z" />
    <glyph glyph-name="thorn" unicode="&#xfe;" horiz-adv-x="1226" 
d="M395 515q0 -149 66 -232q68 -82 172 -82t172 83q67 83 67 231t-67 233q-68 84 -172 84t-172 -84q-66 -84 -66 -233zM668 -16q-82 0 -153 38t-97 84v-524h-254v1868h254v-512q36 47 106 79t144 32q225 -1 348 -143t123 -390t-123 -390t-348 -142z" />
    <glyph glyph-name="ydieresis" unicode="&#xff;" horiz-adv-x="985" 
d="M565 1333q0 63 41 105q40 42 104 41q64 0 105 -41q41 -40 41 -104t-41 -105t-105 -41t-104 41q-41 41 -41 104zM141 1333q0 63 41 105q40 42 104 41q64 0 105 -41q41 -40 41 -104t-41 -105t-105 -41t-104 41q-41 41 -41 104zM381 66l-375 966h256l240 -647l225 647h254
l-532 -1450h-246z" />
    <glyph glyph-name="dotlessi" unicode="&#x131;" horiz-adv-x="532" 
d="M139 0v1032h254v-1032h-254z" />
    <glyph glyph-name="Lslash" unicode="&#x141;" horiz-adv-x="1128" 
d="M225 1434h267v-549l206 114l109 -194l-315 -174v-385h608v-246h-875v483l-110 -61l-109 194l219 121v697z" />
    <glyph glyph-name="lslash" unicode="&#x142;" horiz-adv-x="753" 
d="M246 1450h254v-510l100 55l109 -194l-209 -115v-686h-254v547l-101 -53l-108 194l209 113v649z" />
    <glyph glyph-name="OE" unicode="&#x152;" horiz-adv-x="2174" 
d="M774 1204q-174 0 -291 -123q-115 -125 -115 -365t115 -364q117 -123 291 -123t291 123q117 122 117 364t-117 365t-291 123zM1182 1434h886v-246h-620v-301h498v-246h-498v-395h641v-246h-907v106q-172 -123 -408 -122q-186 0 -336 75q-154 82 -247 253t-93 409t95 405
q184 324 581 324q240 0 408 -125v109z" />
    <glyph glyph-name="oe" unicode="&#x153;" horiz-adv-x="1921" 
d="M1366 831q-88 0 -148 -56t-75 -140h444q-43 196 -221 196zM870 513q0 132 -71 226q-72 92 -188 92q-117 0 -187 -90t-70 -225t71 -225t187 -90t189 90q69 90 69 222zM1847 539v-105h-710q5 -98 71 -166t172 -67q158 0 250 159l205 -75q-131 -301 -469 -301
q-231 0 -367 155q-143 -155 -386 -155t-384 150t-141 380q0 231 141 383t385 152t387 -156q135 156 365 156q121 -1 217 -47t154 -125q110 -152 110 -338z" />
    <glyph glyph-name="Scaron" unicode="&#x160;" horiz-adv-x="1099" 
d="M584 1561h-70l-350 381h246l139 -152l139 152h246zM412 1073q0 -111 215 -213q296 -127 363 -271q34 -71 34 -159q0 -207 -124 -327q-124 -119 -322 -119t-336 114q-135 117 -170 287l215 135q82 -291 284 -291q186 0 187 187q0 111 -213 200q-80 35 -135 65t-121 83
q-137 110 -131 297q0 165 112 277t279 112q291 0 414 -260l-215 -137q-78 152 -199 151q-59 0 -98 -37t-39 -94z" />
    <glyph glyph-name="scaron" unicode="&#x161;" horiz-adv-x="946" 
d="M510 1159h-70l-350 381h246l139 -151l139 151h246zM473 1049q100 -1 187 -47t137 -121l-152 -140q-72 90 -172 90q-41 -1 -67 -23t-27 -63q0 -63 98 -100l162 -57q13 -6 71 -37t76 -55q63 -72 64 -168q0 -140 -101 -242t-257 -102t-264 83t-154 195l202 109
q61 -170 207 -170q127 0 127 110q0 51 -55 78q-30 17 -108 45t-95 35q-104 45 -156 109t-52 179q0 116 90 204q92 88 239 88z" />
    <glyph glyph-name="Ydieresis" unicode="&#x178;" horiz-adv-x="1093" 
d="M614 1734q0 64 41 105t105 41t104 -41q41 -41 41 -104t-41 -105q-40 -42 -104 -41q-64 0 -105 41q-41 40 -41 104zM190 1734q0 64 41 105t105 41t104 -41q41 -41 41 -104t-41 -105q-40 -42 -104 -41q-64 0 -105 41q-41 40 -41 104zM680 0h-266v610l-414 824h287l260 -557
l260 557h287l-414 -824v-610z" />
    <glyph glyph-name="Zcaron" unicode="&#x17d;" horiz-adv-x="1142" 
d="M627 1561h-70l-350 381h246l139 -152l139 152h246zM96 1188v246h951v-123l-615 -1065h643v-246h-1014v123l621 1065h-586z" />
    <glyph glyph-name="zcaron" unicode="&#x17e;" horiz-adv-x="952" 
d="M528 1159h-69l-350 381h245l140 -151l139 151h246zM117 815v217h729v-98l-443 -717h471v-217h-790v98l446 717h-413z" />
    <glyph glyph-name="florin" unicode="&#x192;" horiz-adv-x="989" 
d="M856 1450q119 0 184 -41l-94 -205q-63 29 -117 29q-117 0 -143 -129l-12 -72h221l-43 -217h-221l-174 -885q-35 -180 -146 -272t-280 -92q-119 0 -185 41l95 205q63 -29 116 -29q115 0 144 129l174 903h-162l43 217h164l10 53q35 180 145 273q111 92 281 92z" />
    <glyph glyph-name="circumflex" unicode="&#x2c6;" horiz-adv-x="876" 
d="M299 1159h-246l350 381h70l350 -381h-245l-140 152z" />
    <glyph glyph-name="caron" unicode="&#x2c7;" horiz-adv-x="876" 
d="M473 1159h-70l-350 381h246l139 -151l140 151h245z" />
    <glyph glyph-name="breve" unicode="&#x2d8;" horiz-adv-x="530" 
d="M16 1434h187q0 -35 27 -50q28 -14 56 0t27 50h187q0 -94 -68 -159t-174 -65t-174 65t-68 159z" />
    <glyph glyph-name="dotaccent" unicode="&#x2d9;" horiz-adv-x="589" 
d="M131 1329q0 70 47 117t117 47t117 -47t47 -117t-47 -117t-117 -47t-117 47t-47 117z" />
    <glyph glyph-name="ring" unicode="&#x2da;" horiz-adv-x="479" 
d="M240 1407q-62 0 -62 -66t62 -65q61 0 61 66t-61 65zM29 1341q0 89 59 149q60 60 152 60t151 -59t59 -149t-58 -150q-60 -59 -152 -59t-152 59q-59 59 -59 149z" />
    <glyph glyph-name="ogonek" unicode="&#x2db;" horiz-adv-x="468" 
d="M190 -280q0 -56 54 -56q27 0 45 15t55 65l109 -88q-51 -82 -105 -120t-139 -38q-84 0 -138 49q-55 49 -55 120q-1 135 129 210h164q-119 -101 -119 -157z" />
    <glyph glyph-name="tilde" unicode="&#x2dc;" horiz-adv-x="849" 
d="M281 1456q77 0 153 -42t121 -42q68 0 131 88l133 -112q-35 -80 -105 -129q-135 -95 -296 -9q-78 43 -123 43q-68 0 -131 -88l-133 113q35 80 104 129q70 49 146 49z" />
    <glyph glyph-name="hungarumlaut" unicode="&#x2dd;" horiz-adv-x="948" 
d="M647 1147h-194l131 303h344zM231 1147h-194l131 303h344z" />
    <glyph glyph-name="uni2206" unicode="&#x394;" horiz-adv-x="1425" 
d="M1026 221l-313 901l-314 -901h627zM1325 0h-1225v66l508 1368h209l508 -1368v-66z" />
    <glyph glyph-name="uni2206" unicode="&#x2206;" horiz-adv-x="1425" 
d="M1026 221l-313 901l-314 -901h627zM1325 0h-1225v66l508 1368h209l508 -1368v-66z" />
    <glyph glyph-name="uni2126" unicode="&#x3a9;" horiz-adv-x="1425" 
d="M186 901q0 241 142 395t385 154q242 0 384 -153t142 -396q0 -160 -55 -330t-111 -260l-55 -90h266v-221h-502v82l56 125q37 86 92 298t55 381t-72 256q-73 87 -201 87t-200 -87t-72 -241q0 -231 64 -441t119 -333l20 -45v-82h-502v221h267q-222 355 -222 680z" />
    <glyph glyph-name="uni2126" unicode="&#x2126;" horiz-adv-x="1425" 
d="M186 901q0 241 142 395t385 154q242 0 384 -153t142 -396q0 -160 -55 -330t-111 -260l-55 -90h266v-221h-502v82l56 125q37 86 92 298t55 381t-72 256q-73 87 -201 87t-200 -87t-72 -241q0 -231 64 -441t119 -333l20 -45v-82h-502v221h267q-222 355 -222 680z" />
    <glyph glyph-name="pi" unicode="&#x3c0;" horiz-adv-x="1269" 
d="M272 811h-170v221h1063v-221h-170v-811h-254v811h-215v-811h-254v811z" />
    <glyph glyph-name="uni2000" unicode="&#x2000;" horiz-adv-x="974" 
 />
    <glyph glyph-name="uni2001" unicode="&#x2001;" horiz-adv-x="1951" 
 />
    <glyph glyph-name="uni2002" unicode="&#x2002;" horiz-adv-x="974" 
 />
    <glyph glyph-name="uni2003" unicode="&#x2003;" horiz-adv-x="1951" 
 />
    <glyph glyph-name="uni2004" unicode="&#x2004;" horiz-adv-x="649" 
 />
    <glyph glyph-name="uni2005" unicode="&#x2005;" horiz-adv-x="487" 
 />
    <glyph glyph-name="uni2006" unicode="&#x2006;" horiz-adv-x="323" 
 />
    <glyph glyph-name="uni2007" unicode="&#x2007;" horiz-adv-x="323" 
 />
    <glyph glyph-name="uni2008" unicode="&#x2008;" horiz-adv-x="243" 
 />
    <glyph glyph-name="uni2009" unicode="&#x2009;" horiz-adv-x="389" 
 />
    <glyph glyph-name="uni200A" unicode="&#x200a;" horiz-adv-x="106" 
 />
    <glyph glyph-name="uni2010" unicode="&#x2010;" horiz-adv-x="1030" 
d="M897 539h-764v221h764v-221z" />
    <glyph glyph-name="uni2011" unicode="&#x2011;" horiz-adv-x="1030" 
d="M897 539h-764v221h764v-221z" />
    <glyph glyph-name="endash" unicode="&#x2013;" horiz-adv-x="1198" 
d="M1065 539h-932v221h932v-221z" />
    <glyph glyph-name="emdash" unicode="&#x2014;" horiz-adv-x="1579" 
d="M1446 539h-1313v221h1313v-221z" />
    <glyph glyph-name="quoteleft" unicode="&#x2018;" horiz-adv-x="684" 
d="M102 1450h334l160 -500h-188z" />
    <glyph glyph-name="quoteright" unicode="&#x2019;" horiz-adv-x="684" 
d="M276 950h-188l160 500h334z" />
    <glyph glyph-name="quotesinglbase" unicode="&#x201a;" horiz-adv-x="684" 
d="M276 -29h-188l160 500h334z" />
    <glyph glyph-name="quotedblleft" unicode="&#x201c;" horiz-adv-x="1134" 
d="M102 1450h334l160 -500h-188zM553 1450h334l160 -500h-189z" />
    <glyph glyph-name="quotedblright" unicode="&#x201d;" horiz-adv-x="1134" 
d="M727 950h-188l159 500h334zM276 950h-188l160 500h334z" />
    <glyph glyph-name="quotedblbase" unicode="&#x201e;" horiz-adv-x="1134" 
d="M727 -29h-188l159 500h334zM276 -29h-188l160 500h334z" />
    <glyph glyph-name="dagger" unicode="&#x2020;" horiz-adv-x="1073" 
d="M412 811h-306v221h306v504h250v-504h305v-221h-305v-913h-250v913z" />
    <glyph glyph-name="daggerdbl" unicode="&#x2021;" horiz-adv-x="1073" 
d="M412 811h-306v221h306v504h250v-504h305v-221h-305v-188h305v-222h-305v-503h-250v503h-306v222h306v188z" />
    <glyph glyph-name="bullet" unicode="&#x2022;" horiz-adv-x="802" 
d="M400 918q99 0 171 -72t72 -171t-71 -170t-172 -71t-171 70q-69 70 -69 171t70 172t170 71z" />
    <glyph glyph-name="ellipsis" unicode="&#x2026;" horiz-adv-x="1990" 
d="M1483 160q0 74 49 123t123 49t123 -49t49 -123t-49 -123t-123 -49t-123 49t-49 123zM823 160q0 74 49 123t123 49t123 -49t49 -123t-49 -123t-123 -49t-123 49t-49 123zM164 160q0 74 49 123t123 49t123 -49t49 -123t-49 -123t-123 -49t-123 49t-49 123z" />
    <glyph glyph-name="uni202F" unicode="&#x202f;" horiz-adv-x="389" 
 />
    <glyph glyph-name="perthousand" unicode="&#x2030;" horiz-adv-x="2533" 
d="M246 41l1102 1470l147 -116l-1102 -1473zM2218 311q0 57 -34 95t-94 39q-60 0 -93 -38q-33 -37 -33 -95t33 -97q35 -37 94 -37t93 38t34 95zM1755 311q0 139 94 233q95 94 241 95q146 0 242 -95q96 -94 95 -232q0 -138 -95 -233t-242 -95t-241 94t-94 233zM1401 311
q0 57 -34 95t-94 39q-60 0 -93 -38q-33 -37 -33 -95t33 -96t92 -38t94 38t35 95zM938 311q0 139 94 233t240 95q146 0 242 -95q96 -94 96 -232t-96 -233t-242 -95t-240 94t-94 233zM442 1256q-60 0 -94 -38q-33 -38 -33 -96t33 -96q35 -37 93 -37t94 37q35 39 34 96
q1 58 -33 96t-94 38zM441 1450q145 0 241 -95t96 -233t-95 -232q-95 -95 -241 -95t-241 94q-94 94 -95 233q0 140 94 234t241 94z" />
    <glyph glyph-name="guilsinglleft" unicode="&#x2039;" horiz-adv-x="825" 
d="M723 104l-633 447v168l633 446v-262l-379 -268l379 -268v-263z" />
    <glyph glyph-name="guilsinglright" unicode="&#x203a;" horiz-adv-x="825" 
d="M102 1165l633 -446v-168l-633 -447v263l379 268l-379 268v262z" />
    <glyph glyph-name="fraction" unicode="&#x2044;" horiz-adv-x="1261" 
d="M6 41l1102 1470l147 -116l-1101 -1473z" />
    <glyph glyph-name="uni205F" unicode="&#x205f;" horiz-adv-x="487" 
 />
    <glyph glyph-name="uni2070" unicode="&#x2070;" horiz-adv-x="847" 
d="M272 1024q0 -127 43 -187q43 -61 109 -61t108 60t43 188q0 127 -43 187q-42 61 -108 61t-109 -60t-43 -188zM424 1442q158 0 248 -111q92 -106 92 -306q0 -199 -91 -309t-249 -110t-250 109q-90 113 -90 310t91 307t249 110z" />
    <glyph glyph-name="uni2074" unicode="&#x2074;" horiz-adv-x="718" 
d="M399 918v249l-129 -249h129zM582 614h-183v134h-342v92l330 594h195v-516h88v-170h-88v-134z" />
    <glyph glyph-name="uni2075" unicode="&#x2075;" horiz-adv-x="727" 
d="M369 776q111 0 111 117t-111 117q-66 0 -119 -47l-146 30l43 441h471v-170h-317l-20 -138q55 31 129 31q124 0 192 -72q68 -71 68 -197t-82 -204t-206 -78t-205 69t-91 173l178 20q23 -92 105 -92z" />
    <glyph glyph-name="uni2076" unicode="&#x2076;" horiz-adv-x="765" 
d="M387 975q-43 0 -70 -27t-26 -71q-4 -66 59 -93q62 -28 106 18t19 114t-88 59zM428 1145q108 0 178 -70q70 -69 70 -193t-81 -200t-208 -76t-207 75t-80 181t37 168l232 412h204l-182 -303q14 6 37 6z" />
    <glyph glyph-name="uni2077" unicode="&#x2077;" horiz-adv-x="647" 
d="M82 1434h534v-72l-307 -748h-194l270 650h-303v170z" />
    <glyph glyph-name="uni2078" unicode="&#x2078;" horiz-adv-x="741" 
d="M370 1305q-38 0 -61 -25t-23 -66q0 -42 24 -66q22 -24 61 -24t61 25t23 65q0 40 -23 66q-24 25 -62 25zM370 969q-42 0 -67 -27t-25 -70q0 -44 26 -70q24 -26 67 -26t67 27t25 69q0 42 -25 70q-26 27 -68 27zM371 1442q115 0 185 -64t71 -166q0 -102 -92 -155
q119 -55 119 -181t-79 -198t-205 -72t-204 73t-78 197t119 181q-92 53 -92 155q1 102 71 166t185 64z" />
    <glyph glyph-name="uni2079" unicode="&#x2079;" horiz-adv-x="765" 
d="M379 1073q43 0 70 27t26 71q0 66 -59 93q-60 28 -106 -18t-20 -114t89 -59zM338 903q-108 0 -178 70q-70 69 -70 193t81 200t208 76t207 -75t80 -181t-37 -168l-232 -412h-204l182 303q-14 -6 -37 -6z" />
    <glyph glyph-name="Euro" unicode="&#x20ac;" horiz-adv-x="1318" 
d="M233 770h-182l103 221h102q48 219 194 339t353 120q313 0 442 -240l-221 -131q-72 133 -221 133q-221 0 -287 -221h430l-102 -221h-357v-106h459l-102 -222h-328q66 -221 287 -221q150 0 221 133l221 -131q-129 -240 -442 -239q-207 0 -352 120t-195 338h-205l103 222h79
v106z" />
    <glyph glyph-name="trademark" unicode="&#x2122;" horiz-adv-x="1744" 
d="M993 614h-198v820h198l199 -478l199 478h198v-820h-198v396l-134 -320h-131l-133 320v-396zM260 1249h-213v185h625v-185h-213v-635h-199v635z" />
    <glyph glyph-name="partialdiff" unicode="&#x2202;" horiz-adv-x="1290" 
d="M705 831q-145 0 -240 -118q-94 -119 -94 -269q0 -108 53 -176t154 -67q143 -1 226 113t83 256t-43 202q-43 59 -139 59zM651 1450q271 0 397 -171t126 -511t-147 -562t-490 -222q-197 0 -322 122t-125 322q0 270 181 445t456 176q100 0 178 -45q-17 117 -73 173t-156 56
q-162 0 -236 -152l-231 72q41 129 166 211q125 86 276 86z" />
    <glyph glyph-name="product" unicode="&#x220f;" horiz-adv-x="1198" 
d="M434 0h-254v1434h838v-1434h-254v1212h-330v-1212z" />
    <glyph glyph-name="summation" unicode="&#x2211;" horiz-adv-x="1132" 
d="M1010 221v-221h-904v113l381 604l-381 604v113h904v-222h-557l288 -467v-57l-288 -467h557z" />
    <glyph glyph-name="minus" unicode="&#x2212;" horiz-adv-x="1216" 
d="M1098 539h-975v221h975v-221z" />
    <glyph glyph-name="radical" unicode="&#x221a;" horiz-adv-x="1230" 
d="M106 567v230h377l146 -463l317 1116h246l-451 -1450h-209l-188 567h-238z" />
    <glyph glyph-name="infinity" unicode="&#x221e;" horiz-adv-x="1810" 
d="M1276 557q86 0 135 46t49 132t-49 132t-135 46q-141 0 -238 -178q97 -178 238 -178zM535 557q141 0 237 178q-96 178 -237 178q-85 0 -135 -46t-50 -132t50 -132t135 -46zM1311 344q-121 0 -231 49t-175 146q-65 -95 -175 -145t-230 -50q-186 0 -290 106t-106 285
q0 179 104 285t292 106q120 0 230 -49t175 -145q65 96 175 145t231 49q187 0 291 -105t104 -285t-104 -286t-291 -106z" />
    <glyph glyph-name="integral" unicode="&#x222b;" horiz-adv-x="989" 
d="M848 1450q127 0 192 -41l-94 -205q-63 29 -117 29q-117 0 -143 -129l-229 -1174q-70 -365 -412 -364q-133 0 -199 41l95 205q63 -29 116 -29q115 0 144 129l229 1173q70 365 418 365z" />
    <glyph glyph-name="approxequal" unicode="&#x2248;" horiz-adv-x="1288" 
d="M842 967q104 0 186 104l131 -141q-39 -96 -125 -162t-179 -66t-220 60t-195 61q-104 0 -186 -104l-131 141q39 96 125 162t181 66t222 -61q127 -60 191 -60zM434 664q94 0 222 -60t192 -61q102 0 186 104l131 -141q-39 -96 -125 -162t-179 -66t-221 61q-128 60 -194 60
q-102 0 -186 -104l-131 141q39 96 125 162t180 66z" />
    <glyph glyph-name="notequal" unicode="&#x2260;" horiz-adv-x="1181" 
d="M143 709v221h488l121 211l192 -107l-59 -104h153v-221h-278l-84 -148h362v-221h-487l-121 -211l-192 107l59 104h-154v221h279l84 148h-363z" />
    <glyph glyph-name="lessequal" unicode="&#x2264;" horiz-adv-x="1177" 
d="M1075 0h-975v221h975v-221zM987 287l-801 418v237l801 418v-268l-516 -269l516 -268v-268z" />
    <glyph glyph-name="greaterequal" unicode="&#x2265;" horiz-adv-x="1177" 
d="M102 221h975v-221h-975v221zM190 1360l801 -418v-237l-801 -418v268l517 268l-517 269v268z" />
    <glyph glyph-name="lozenge" unicode="&#x25ca;" horiz-adv-x="1241" 
d="M379 717l242 -500l241 500l-241 500zM743 0h-245l-373 717l373 717h245l373 -717z" />
    <glyph glyph-name="NULL" horiz-adv-x="0" 
 />
    <glyph glyph-name="CR.001" horiz-adv-x="681" 
 />
    <glyph glyph-name="CR" horiz-adv-x="507" 
 />
    <glyph glyph-name="apple" horiz-adv-x="1581" 
d="M836 242l473 -138v844q-76 -124 -201 -200t-272 -89v-417zM272 948v-844l473 138v417q-151 12 -275 89t-198 200zM1307 1233l-471 137v-620q193 16 326 154t145 329zM745 750v620l-471 -137q12 -190 146 -330q135 -137 325 -153zM1397 1264v-1219q1 -17 -13 -31t-27 -14
t-20 2l-546 158l-547 -158q-6 -2 -20 -2t-26 13q-13 13 -14 32v1219q0 37 33 45l553 159q20 8 41 0l553 -159q33 -8 33 -45z" />
    <glyph glyph-name="No" horiz-adv-x="2600" 
d="M1989 602q117 0 188 90q70 90 70 226t-71 225q-72 90 -188 90t-187 -90t-71 -225t70 -226q72 -90 189 -90zM1989 1450q242 0 383 -152t141 -382t-141 -381q-141 -150 -383 -150t-383 150q-142 150 -142 381q0 230 142 382t383 152zM2456 0h-932v221h932v-221zM991 1434
h266v-1434h-280l-526 946v-946h-267v1434h281l526 -947v947z" />
    <glyph glyph-name="zero.tn" 
d="M860 717q0 496 -274 495q-274 0 -274 -496t274 -495q274 0 274 496zM586 1450q252 0 390 -194t138 -540t-137 -540q-137 -192 -391 -192t-391 192t-137 540q0 346 138 540t390 194z" />
    <glyph glyph-name="one.tn" 
d="M762 1434v-1434h-258v1073l-275 -164v279l420 246h113z" />
    <glyph glyph-name="two.tn" 
d="M1038 0h-911v102l512 662q111 137 111 260q0 88 -45 138t-127 50t-131 -49q-48 -49 -60 -139l-237 45q10 165 131 273t309 108t304 -114q114 -114 114 -297t-123 -345l-350 -456h503v-238z" />
    <glyph glyph-name="three.tn" 
d="M590 221q100 0 164 66q63 65 63 179t-61 180t-164 67q-68 0 -125 -31l-102 143l270 371h-457v238h821v-91l-337 -456q49 4 57 4q164 0 260 -117q96 -116 96 -322t-137 -337t-341 -131t-337 114q-131 115 -149 299l247 33q51 -209 232 -209z" />
    <glyph glyph-name="four.tn" 
d="M684 504v547l-303 -547h303zM942 0h-258v266h-616v131l604 1037h270v-930h160v-238h-160v-266z" />
    <glyph glyph-name="five.tn" 
d="M584 221q104 0 158 66q54 65 54 187t-58 185t-167 64q-141 0 -254 -129l-161 33l80 807h737v-238h-527l-32 -299q90 53 202 53q213 0 326 -126t113 -346t-129 -357q-128 -137 -328 -137t-328 106q-127 109 -145 285l244 45q39 -199 215 -199z" />
    <glyph glyph-name="six.tn" 
d="M373 453q0 -102 63 -167q64 -65 158 -65q94 -1 158 63t63 168q0 104 -61 165q-62 63 -160 63t-160 -62t-61 -165zM610 918q199 0 330 -132q133 -130 133 -334t-138 -336t-341 -132t-341 132t-138 335q0 133 69 251l418 748h287l-311 -532h32z" />
    <glyph glyph-name="seven.tn" 
d="M147 1434h869v-107l-541 -1327h-254l490 1196h-564v238z" />
    <glyph glyph-name="eight.tn" 
d="M414 1054q0 -81 47 -131q47 -51 125 -51t125 50t47 132q0 81 -47 130t-125 49t-125 -49t-47 -130zM587 635q-91 0 -151 -55q-60 -56 -59 -152q0 -96 59 -152q60 -56 150 -55q90 0 149 55t60 152q-1 97 -59 152t-149 55zM174 1048q0 172 117 288q117 114 296 114t295 -114
t115 -286q0 -171 -135 -278q190 -109 191 -344q1 -205 -137 -325q-138 -119 -330 -119t-332 120q-135 121 -135 324q0 236 188 344q-133 104 -133 276z" />
    <glyph glyph-name="nine.tn" 
d="M799 981q1 102 -63 167q-64 64 -158 64t-158 -63t-64 -167t62 -166t160 -62t160 62t61 165zM561 516q-201 0 -332 130t-131 335t138 337t341 132q202 0 341 -133t139 -334q0 -133 -70 -252l-418 -747h-286l311 532h-33z" />
    </font>
</defs>
</svg>
